Coordinates
version=1
nRows=54
nColumns=12
inDegrees=yes

Units are S.I. units (second, meters, Newtons, ...)
Angles are in degrees

endheader
time	SC_y	SC_z	SC_x	AC_y	AC_z	AC_x	GH_y	GH_z	GH_yy	EL_x	PS_y
       0.0              -11.23          21.67          60.73          45.96         -5.111         -2.831          170.0          89.87          20.81           80.3          115.4
   0.02202              -11.23          21.66          60.73          45.96         -5.109         -2.833          170.0          89.87          20.83          80.31          115.4
   0.04405              -11.23          21.66          60.73          45.96         -5.108         -2.834          169.9          89.87          20.86          80.32          115.4
   0.06607              -11.23          21.66          60.73          45.96         -5.106         -2.836          169.9          89.86          20.88          80.33          115.4
   0.08809              -11.23          21.65          60.73          45.96         -5.105         -2.838          169.9          89.86          20.91          80.33          115.4
    0.1101              -11.23          21.65          60.73          45.96         -5.103         -2.839          169.8          89.85          20.94          80.34          115.4
    0.1321              -11.24          21.65          60.73          45.97         -5.101         -2.841          169.8          89.85          20.97          80.35          115.4
    0.1542              -11.24          21.64          60.73          45.97         -5.099         -2.844          169.7          89.84           21.0          80.37          115.4
    0.1762              -11.24          21.64          60.73          45.97         -5.096         -2.846          169.7          89.84          21.04          80.38          115.4
    0.1982              -11.24          21.63          60.73          45.97         -5.094         -2.848          169.6          89.83          21.08          80.39          115.5
    0.2202              -11.24          21.63          60.72          45.98         -5.091         -2.851          169.6          89.82          21.12           80.4          115.5
    0.2423              -11.24          21.62          60.72          45.98         -5.088         -2.854          169.5          89.82          21.16          80.42          115.5
    0.2643              -11.24          21.61          60.72          45.98         -5.085         -2.857          169.5          89.81          21.21          80.44          115.5
    0.2863              -11.25          21.61          60.72          45.99         -5.082          -2.86          169.4           89.8          21.26          80.45          115.5
    0.3083              -11.25           21.6          60.72          45.99         -5.078         -2.864          169.3          89.79          21.32          80.47          115.5
    0.3303              -11.25          21.59          60.72          45.99         -5.075         -2.867          169.2          89.78          21.38          80.49          115.5
    0.3524              -11.25          21.59          60.72           46.0          -5.07         -2.872          169.1          89.77          21.45          80.51          115.5
    0.3744              -11.26          21.58          60.71           46.0         -5.066         -2.876          169.0          89.76          21.52          80.54          115.5
    0.3964              -11.26          21.57          60.71          46.01         -5.061         -2.881          168.9          89.75           21.6          80.56          115.5
    0.4184              -11.26          21.56          60.71          46.01         -5.055         -2.887          168.8          89.73          21.68          80.59          115.5
    0.4405              -11.26          21.54          60.71          46.02         -5.049         -2.893          168.7          89.72          21.78          80.62          115.5
    0.4625              -11.27          21.53           60.7          46.03         -5.043         -2.899          168.5           89.7          21.88          80.66          115.6
    0.4845              -11.27          21.52           60.7          46.04         -5.035         -2.907          168.4          89.68           22.0           80.7          115.6
    0.5065              -11.28           21.5           60.7          46.04         -5.027         -2.915          168.2          89.66          22.13          80.74          115.6
    0.5286              -11.28          21.48          60.69          46.05         -5.018         -2.924          168.0          89.64          22.27          80.79          115.6
    0.5506              -11.29          21.46          60.69          46.07         -5.008         -2.934          167.8          89.61          22.43          80.84          115.6
    0.5726              -11.29          21.44          60.69          46.08         -4.997         -2.945          167.6          89.58           22.6           80.9          115.6
    0.5946               -11.3          21.41          60.68          46.09         -4.984         -2.958          167.3          89.55           22.8          80.96          115.7
    0.6166              -11.31          21.39          60.67          46.11          -4.97         -2.972          167.0          89.51          23.03          81.04          115.7
    0.6387              -11.32          21.35          60.67          46.12         -4.954         -2.988          166.6          89.47          23.28          81.12          115.7
    0.6607              -11.33          21.32          60.66          46.14         -4.935         -3.007          166.2          89.42          23.57          81.22          115.8
    0.6827              -11.34          21.28          60.65          46.17         -4.914         -3.028          165.8          89.37          23.91          81.33          115.8
    0.7047              -11.36          21.23          60.64          46.19          -4.89         -3.052          165.3          89.31           24.3          81.46          115.9
    0.7268              -11.37          21.17          60.63          46.22         -4.861         -3.081          164.6          89.23          24.74          81.61          115.9
    0.7488              -11.39           21.1          60.62          46.26         -4.828         -3.114          163.9          89.15          25.27          81.78          116.0
    0.7708              -11.41          21.03           60.6           46.3         -4.788         -3.154          163.1          89.05          25.89          81.99          116.1
    0.7928              -11.44          20.93          60.58          46.35         -4.742           -3.2          162.1          88.93          26.63          82.23          116.2
    0.8149              -11.47          20.82          60.56          46.41         -4.686         -3.256          160.9          88.78          27.51          82.53          116.3
    0.8369              -11.51          20.69          60.53          46.48         -4.618         -3.324          159.4          88.61          28.58          82.88          116.4
    0.8589              -11.56          20.53           60.5          46.57         -4.535         -3.407          157.6          88.39          29.88          83.31          116.6
    0.8809              -11.61          20.32          60.46          46.68         -4.433         -3.509          155.4          88.13          31.49          83.85          116.8
    0.9029              -11.69          20.07           60.4          46.82         -4.306         -3.637          152.7           87.8           33.5          84.51          117.0
     0.925              -11.78          19.75          60.34          46.99         -4.145         -3.797          149.2          87.39          36.02          85.35          117.4
     0.947              -11.89          19.35          60.26          47.21         -3.941         -4.001          144.9          86.87          39.24          86.42          117.8
     0.969              -12.04          18.83          60.15          47.49          -3.68         -4.262          139.2           86.2          43.35          87.79          118.3
     0.991              -12.23          18.17          60.01          47.84         -3.345         -4.597          132.0          85.34          48.63          89.54          119.0
     1.013              -12.48          17.32          59.84           48.3         -2.917         -5.025          122.8          84.24          55.38          91.78          119.8
     1.035              -12.78          16.25          59.62          48.88         -2.379         -5.564          111.3          82.85          63.85           94.6          120.9
     1.057              -13.16          14.95          59.36          49.58         -1.723          -6.22          97.16          81.17          74.19          98.03          122.2
     1.079              -13.59          13.45          59.05          50.39         -0.963          -6.98          80.81          79.21          86.17          102.0          123.7
     1.101              -14.06          11.82          58.71          51.27        -0.1399         -7.803          63.11           77.1          99.13          106.3          125.4
     1.123              -14.53          10.19          58.38          52.15         0.6832         -8.627          45.41          74.98          112.1          110.6          127.0
     1.145              -14.96          8.682          58.07          52.96          1.443         -9.387          29.06          73.03          124.1          114.6          128.6
     1.167              -15.33          7.383           57.8          53.67          2.099         -10.04          14.96          71.34          134.4          118.0          129.9
